<svg width="96" height="96" viewBox="0 0 96 96" fill="none" xmlns="http://www.w3.org/2000/svg">
    <g clip-path="url(#clip0_11877_339)">
        <path d="M62.25 37.2518C62.25 35.9593 62.25 36.6774 62.25 36.5338C62.25 29.6403 57.2253 23.8957 49.1857 23.8957V37.2518H62.25Z" fill="white"/>
        <path d="M36.4086 37.2519C36.4086 44.5762 43.4432 50.608 49.1858 50.608V37.2519C49.1858 37.2519 36.4086 37.1082 36.4086 37.2519Z" fill="white"/>
        <path d="M21.0355 38.0631C21.0355 27.6408 27.235 18.6328 36.4092 14.3657" stroke="white" stroke-width="2" stroke-linecap="round"/>
        <path d="M15.4666 51.6042C17.4555 49.3473 18.6488 47.0905 18.6488 47.0905" stroke="white" stroke-width="2" stroke-linecap="round"/>
        <path d="M20.2399 55.3656C26.3207 47.8428 27.3998 44.8539 27.3998 37.3109C27.3998 33.3232 28.8469 29.6141 31.1051 26.5215" stroke="white" stroke-width="2" stroke-linecap="round" stroke-linejoin="round"/>
        <path d="M22.6266 61.76C27.4982 57.6383 30.8823 51.7975 32.6725 46.2524" stroke="white" stroke-width="2" stroke-linecap="round"/>
        <path d="M42.1175 83.2L41.3219 81.3193" stroke="white" stroke-width="2" stroke-linecap="round"/>
        <path d="M75.1327 47.8428C75.1327 44.4575 76.7238 41.8246 76.7238 37.3109C76.7238 31.8516 74.5975 26.8865 71.5621 22.8139" stroke="white" stroke-width="2" stroke-linecap="round" stroke-linejoin="round"/>
        <path d="M69.5638 57.6224C69.5638 57.6224 68.3705 52.7326 68.3705 48.9712C68.3705 45.9621 69.9616 40.6961 69.9616 37.687C69.9616 36.6463 69.8683 35.6246 69.6894 34.6278" stroke="white" stroke-width="2" stroke-linecap="round" stroke-linejoin="round"/>
        <path d="M34.581 23.056C38.3243 19.9514 43.1676 18.1277 48.4819 18.1277C57.3722 18.1277 65.325 23.0805 68.456 30.5007" stroke="white" stroke-width="2" stroke-linecap="round" stroke-linejoin="round"/>
        <path d="M40.9976 12.7034C43.3691 12.0713 45.878 11.7333 48.4819 11.7333C56.4109 11.7333 63.5659 14.6673 68.6371 19.5031" stroke="white" stroke-width="2" stroke-linecap="round" stroke-linejoin="round"/>
        <path d="M61.4945 51.5252C61.6497 54.1695 62.0877 57.1074 63.1024 60.6709" stroke="white" stroke-width="2" stroke-linecap="round"/>
        <path d="M69.9617 74.1726C67.6805 71.035 65.7153 67.8974 64.3872 64.6532" stroke="white" stroke-width="2" stroke-linecap="round"/>
        <path d="M23.8199 68.9067C30.5821 63.2646 32.8817 60.0249 34.8208 56.2635C35.7619 54.438 36.457 52.9576 37.0127 51.6042" stroke="white" stroke-width="2" stroke-linecap="round" stroke-linejoin="round"/>
        <path d="M27.0021 74.1727C34.7304 68.5842 39.5145 62.1223 42.4761 56.2635" stroke="white" stroke-width="2" stroke-linecap="round"/>
        <path d="M37.742 74.1727C40.5264 71.5397 42.9131 67.7783 42.9131 67.7783C42.9131 67.7783 45.6975 76.8057 49.2775 83.2001" stroke="white" stroke-width="2" stroke-linecap="round" stroke-linejoin="round"/>
        <path d="M58.2586 83.2C53.9304 76.9034 50.4383 69.0257 48.4818 60.2286" stroke="white" stroke-width="2" stroke-linecap="round"/>
        <path d="M67.0693 83.2C59.7749 74.18 55.4277 64.2244 54.2116 53.8611" stroke="white" stroke-width="2" stroke-linecap="round"/>
    </g>
    <defs>
        <clipPath id="clip0_11877_339">
            <rect width="96" height="96" fill="white"/>
        </clipPath>
    </defs>
</svg>